[img]http://img803.imageshack.us/img803/8347/bdborat320x200.jpg[/img]

AKA Borat: Cultural Learnings of America for Make Benefit Glorious Nation of Kazakhstan 
 
http://www.imdb.com/title/tt0443453/

Source: Borat (BDrip 1080p ENG ITA DTS - RUS AC3) Multisub x264 blu-ray (2006) Thanks!

Subs: Danish, Dutch, English, Farsi-Persian, Finnish, French, German, Indonesian, Italian, Lithuanian, Norwegian, Spanish, Swedish, Vietnamese.

Sample and Screens included.

General
Complete name                            : Borat 2006 720p BRRip x264 MP4 AAC-CC.mp4
Format                                   : MPEG-4
Format profile                           : Base Media
Codec ID                                 : isom
File size                                : 2.53 GiB
Duration                                 : 1h 23mn
Overall bit rate mode                    : Variable
Overall bit rate                         : 4 328 Kbps
Encoded date                             : UTC 2013-05-04 08:08:05
Tagged date                              : UTC 2013-05-04 08:08:05
Writing application                      : Yamb 2.1.0.0 

Video
ID                                       : 1
Format                                   : AVC
Format/Info                              : Advanced Video Codec
Format profile                           : High@L4.1
Format settings, CABAC                   : Yes
Format settings, ReFrames                : 5 frames
Codec ID                                 : avc1
Codec ID/Info                            : Advanced Video Coding
Duration                                 : 1h 23mn
Bit rate                                 : 4 032 Kbps
Maximum bit rate                         : 25.1 Mbps
Width                                    : 1 280 pixels
Height                                   : 688 pixels
Display aspect ratio                     : 1.85:1
Frame rate mode                          : Variable
Frame rate                               : 23.976 fps
Minimum frame rate                       : 19.048 fps
Maximum frame rate                       : 24.390 fps
Color space                              : YUV
Chroma subsampling                       : 4:2:0
Bit depth                                : 8 bits
Scan type                                : Progressive
Bits/(Pixel*Frame)                       : 0.191
Stream size                              : 2.32 GiB (92%)
Writing library                          : x264 core 112
Encoding settings                        : cabac=1 / ref=5 / deblock=1:0:0 / analyse=0x3:0x113 / me=hex / subme=7 / psy=1 / psy_rd=1.00:0.00 / mixed_ref=1 / me_range=16 / chroma_me=1 / trellis=1 / 8x8dct=1 / cqm=0 / deadzone=21,11 / fast_pskip=1 / chroma_qp_offset=-2 / threads=3 / sliced_threads=0 / nr=0 / decimate=1 / interlaced=0 / constrained_intra=0 / bframes=5 / b_pyramid=2 / b_adapt=2 / b_bias=0 / direct=1 / weightb=1 / open_gop=0 / weightp=2 / keyint=240 / keyint_min=23 / scenecut=40 / intra_refresh=0 / rc_lookahead=50 / rc=abr / mbtree=1 / bitrate=4032 / ratetol=1.0 / qcomp=0.60 / qpmin=3 / qpmax=51 / qpstep=4 / ip_ratio=1.40 / aq=1:1.00
Encoded date                             : UTC 2013-05-04 21:00:48
Tagged date                              : UTC 2013-05-04 08:11:30
Color primaries                          : BT.709
Transfer characteristics                 : BT.709
Matrix coefficients                      : BT.709

Audio
ID                                       : 2
Format                                   : AAC
Format/Info                              : Advanced Audio Codec
Format profile                           : LC
Codec ID                                 : 40
Duration                                 : 1h 23mn
Bit rate mode                            : Variable
Bit rate                                 : 353 Kbps
Maximum bit rate                         : 750 Kbps
Channel(s)                               : 6 channels
Channel positions                        : Front: L C R, Side: L R, LFE
Sampling rate                            : 48.0 KHz
Compression mode                         : Lossy
Delay relative to video                  : 83ms
Stream size                              : 213 MiB (8%)
Language                                 : English
Encoded date                             : UTC 2013-05-04 08:10:47
Tagged date                              : UTC 2013-05-04 08:11:30

Enjoy...

Requested by Alorati 

Coming soon: Immortal, The Duellist, The Secret in Their Eyes, Badlands and more.

[img]http://img4.imageshack.us/img4/9277/borat2006720pbrripx264m.png[/img]
[img]http://img199.imageshack.us/img199/9277/borat2006720pbrripx264m.png[/img]
[img]http://img822.imageshack.us/img822/9277/borat2006720pbrripx264m.png[/img]
[img]http://img42.imageshack.us/img42/9277/borat2006720pbrripx264m.png[/img]
[img]http://img835.imageshack.us/img835/9277/borat2006720pbrripx264m.png[/img]
[img]http://img577.imageshack.us/img577/9277/borat2006720pbrripx264m.png[/img]